<?xml version="1.0" encoding="UTF-8"?>
<svg id="Layer_1" data-name="Layer 1" xmlns="http://www.w3.org/2000/svg" viewBox="0 0 1100.51628 488">
  <path d="M155.44986,248.03096c44.20001,0,75.5-30.3,75.5-73.5s-31.29999-73.5-75.5-73.5-75.29999,30.3-75.29999,73.5,31.09998,73.5,75.29999,73.5ZM112.94986,174.63097c0-25.39999,17.5-42.89999,42.5-42.89999s42.59998,17.5,42.59998,42.89999-17.29999,43-42.59998,43-42.5-17.60001-42.5-43h0Z"/>
  <path d="M316.84988,248.03096c36.09998,0,58.20001-22.60001,58.20001-59.89999v-81.8h-31.59998v79.59999c0,21.3-8.90002,32.2-26.59998,32.2s-26.59998-10.89999-26.59998-32.2v-79.6h-31.59998v81.80001c0,37.3,22,59.89999,58.20001,59.89999h-.00012Z"/>
  <path d="M448.24985,248.03096h32v-111.10001h44.79999v-30h-121.59998v30h44.79999v111.10001Z"/>
  <path d="M556.24985,248.03096h94v-30.10001h-61.90002v-111.4h-32.09998v141.50001Z"/>
  <path d="M686.74988,248.63097h32.29999V106.33097h-32.29999v142.3Z"/>
  <path d="M767.34988,248.13097h95.20001v-27.3h-63.29999v-30.89999h55.60001v-26.89999h-55.60001v-29.3h61v-27.1h-93v141.49999h.09998Z"/>
  <path d="M900.54987,248.43099h32.2v-44.2h21.3l25.3,44.2h37.3l-29.39999-49.2c17.1-7.5,27-22.89999,27-43.7,0-30.2-20.7-48.9-53.10001-48.9h-60.60001v141.8ZM932.34987,177.03098v-42.90001h24.5c15.8,0,24.7,7.7,24.7,21.5s-8.89999,21.5-24.7,21.5h-24.5v-.09999Z"/>
  <path d="M141.64987,397.33098c19.70001,0,35.79999-12,40.70001-30.10001h-10.79999c-4.20001,12.20001-15.70001,19.89999-29.5,19.89999s-31-13.20001-31-32,12.90002-31.89999,31-31.89999,24.5,7.20001,28.70001,18.89999h10.90002c-5.29999-17.89999-20.79999-29.10001-40-29.10001s-41.09998,17.70001-41.09998,42.10001,17.20001,42.20001,41.09998,42.20001h-.00006Z"/>
  <path d="M270.5499,395.33098c24.79999,0,42.20001-17.39999,42.20001-42.20001s-17.40002-42.10001-42.20001-42.10001-42,17.39999-42,42.10001,17.29999,42.20001,42,42.20001ZM238.94986,353.13097c0-18.89999,12.90002-31.89999,31.59998-31.89999s31.59998,13.10001,31.59998,31.89999-12.90002,32-31.59998,32-31.59998-13.10001-31.59998-32h0Z"/>
  <path d="M352.5499,395.83098h10.90002l7.5-18.5h39.59998l7.70001,18.5h10.79999l-33.5-81.30002h-9.5l-33.40002,81.29999h-.09998v.00003ZM374.84988,367.83098l15.90002-39,15.90002,39h-31.80005Z"/>
  <path d="M512.94986,395.33098c19.70001,0,35.79999-12,40.70001-30.10001h-10.79999c-4.20001,12.20001-15.70001,19.89999-29.5,19.89999s-31-13.20001-31-32,12.90002-31.89999,31-31.89999,24.5,7.20001,28.70001,18.89999h10.90002c-5.29999-17.89999-20.79999-29.10001-40-29.10001s-41.09998,17.70001-41.09998,42.10001,17.20001,42.20001,41.09998,42.20001h-.00006Z"/>
  <path d="M658.84988,395.13097h10.29999v-81.30002h-10.29999v35h-43.10001v-35h-10.19998v81.29999h10.20001v-36.60001h43.10001v36.60001h0l-.00003.00003Z"/>
  <path d="M733.64987,397.93099h10.20001v-81.29999h-10.20001v81.29999Z"/>
  <path d="M811.44986,397.23097h10.10001v-63.60001l44.89999,63.60001h9.5v-81.29999h-10v63.60001l-44.89999-63.60001h-9.70001v81.29999h.10001Z"/>
  <path d="M965.04987,396.43099c25,0,41.8-18.89999,41.4-45.70001h-44.1v9.79999h33.1c-2.1,15.29999-13.7,25.70001-30.1,25.70001s-31.2-13.20001-31.2-32,12.8-31.89999,31-31.89999,22.5,6.20001,27.6,16.60001h11.2c-5.2-16-20.6-26.79999-39.2-26.79999s-41.09999,17.79999-41.09999,42.10001,17.39999,42.20001,41.39999,42.20001h0v-.00003Z"/>
  <polyline points="773.54987 32.73097 800.64987 32.73097 1075.74987 32.73097 1075.74987 454.23098 22.24985 454.23098 22.24985 32.73097 633.54987 32.73097 635.14987 32.73097" style="fill: none; stroke: #000; stroke-miterlimit: 10; stroke-width: 9.6px;"/>
  <circle cx="702.89987" cy="32.73097" r="28.96196" style="fill: #db9334;"/>
</svg>
