<?xml version="1.0" encoding="UTF-8"?>
<svg id="Layer_1" data-name="Layer 1" xmlns="http://www.w3.org/2000/svg" viewBox="0 0 1100.51628 476.28962">
  <path d="M155.44988,254.66197c44.20001,0,75.5-30.29999,75.5-73.5s-31.29999-73.5-75.5-73.5-75.29999,30.29999-75.29999,73.5,31.09998,73.5,75.29999,73.5ZM112.94988,181.26195c0-25.40002,17.5-42.90002,42.5-42.90002s42.59998,17.5,42.59998,42.90002-17.29999,43-42.59998,43-42.5-17.59998-42.5-43Z" style="fill: #fff;"/>
  <path d="M316.84991,254.66197c36.09998,0,58.20001-22.59998,58.20001-59.90002v-81.79999h-31.59998v79.59998c0,21.29999-8.90002,32.20001-26.59998,32.20001s-26.59998-10.90002-26.59998-32.20001v-79.59998h-31.59998v81.79999c0,37.29999,22,59.90002,58.20001,59.90002h-.00012Z" style="fill: #fff;"/>
  <path d="M448.24987,254.66197h32v-111.09998h44.79999v-30h-121.59998v30h44.79999v111.09998h0Z" style="fill: #fff;"/>
  <path d="M556.24987,254.66197h94v-30.09998h-61.90002v-111.40002h-32.09998v141.5Z" style="fill: #fff;"/>
  <path d="M686.7499,255.26195h32.29999V112.96196h-32.29999v142.29999Z" style="fill: #fff;"/>
  <path d="M767.34991,254.76195h95.20001v-27.29999h-63.29999v-30.90002h55.60001v-26.90002h-55.60001v-29.29999h61v-27.09998h-93v141.5h.10001-.00003Z" style="fill: #fff;"/>
  <path d="M900.54989,255.062h32.2v-44.20001h21.3l25.3,44.20001h37.3l-29.39999-49.20001c17.1-7.5,27-22.90002,27-43.70001,0-30.20001-20.7-48.90002-53.10001-48.90002h-60.60001v141.79999h0v.00006ZM932.34989,183.66197v-42.90002h24.5c15.8,0,24.7,7.70001,24.7,21.5s-8.89999,21.5-24.7,21.5h-24.5v-.09998Z" style="fill: #fff;"/>
  <path d="M141.64989,403.96196c19.70001,0,35.79999-12,40.70001-30.09998h-10.79999c-4.20001,12.20001-15.70001,19.90002-29.5,19.90002s-31-13.20001-31-32,12.90002-31.90002,31-31.90002,24.5,7.20001,28.70001,18.90002h10.90002c-5.29999-17.90002-20.79999-29.09998-40-29.09998s-41.09998,17.70001-41.09998,42.09998,17.20001,42.20001,41.09998,42.20001h0l-.00006-.00006Z" style="fill: #fff;"/>
  <path d="M270.54992,401.96196c24.79999,0,42.20001-17.40002,42.20001-42.20001s-17.40002-42.09998-42.20001-42.09998-42,17.40002-42,42.09998,17.29999,42.20001,42,42.20001ZM238.94988,359.76195c0-18.90002,12.90002-31.90002,31.59998-31.90002s31.59998,13.09998,31.59998,31.90002-12.90002,32-31.59998,32-31.59998-13.09998-31.59998-32Z" style="fill: #fff;"/>
  <path d="M352.54992,402.46196h10.90002l7.5-18.5h39.59998l7.70001,18.5h10.79999l-33.5-81.29999h-9.5l-33.40002,81.29999h-.09998ZM374.84991,374.46196l15.90002-39,15.90002,39h-31.80005Z" style="fill: #fff;"/>
  <path d="M512.94988,401.96196c19.70001,0,35.79999-12,40.70001-30.09998h-10.79999c-4.20001,12.20001-15.70001,19.90002-29.5,19.90002s-31-13.20001-31-32,12.90002-31.90002,31-31.90002,24.5,7.20001,28.70001,18.90002h10.90002c-5.29999-17.90002-20.79999-29.09998-40-29.09998s-41.09998,17.70001-41.09998,42.09998,17.20001,42.20001,41.09998,42.20001h0l-.00006-.00006Z" style="fill: #fff;"/>
  <path d="M658.84991,401.76195h10.29999v-81.29999h-10.29999v35h-43.10001v-35h-10.19998v81.29999h10.20001v-36.59998h43.10001v36.59998h-.00003Z" style="fill: #fff;"/>
  <path d="M733.64989,404.562h10.20001v-81.29999h-10.20001v81.29999Z" style="fill: #fff;"/>
  <path d="M811.44988,403.86199h10.10001v-63.59998l44.89999,63.59998h9.5v-81.29999h-10v63.59998l-44.89999-63.59998h-9.70001v81.29999h.10001Z" style="fill: #fff;"/>
  <path d="M965.04989,403.062c25,0,41.8-18.90002,41.4-45.70001h-44.1v9.79999h33.1c-2.1,15.29999-13.7,25.70001-30.1,25.70001s-31.2-13.20001-31.2-32,12.8-31.90002,31-31.90002,22.5,6.20001,27.6,16.59998h11.2c-5.2-16-20.6-26.79999-39.2-26.79999s-41.09999,17.79999-41.09999,42.09998,17.39999,42.20001,41.39999,42.20001h0v.00006Z" style="fill: #fff;"/>
  <polyline points="773.54989 39.36196 800.64989 39.36196 1075.74989 39.36196 1075.74989 460.86196 22.24987 460.86196 22.24987 39.36196 633.54989 39.36196 635.14989 39.36196" style="fill: none; stroke: #fff; stroke-miterlimit: 10; stroke-width: 9.6px;"/>
  <circle cx="702.89989" cy="39.36196" r="28.96196" style="fill: #ed5f1e;"/>
</svg>
