<svg xmlns="http://www.w3.org/2000/svg" viewBox="0 0 1440 810" preserveAspectRatio="xMinYMax meet"><path fill="#523628" d="M 1440 809.855469 C 1435.175781 804.464844 1429.945312 799.507812 1424.308594 794.976562 C 1413.5 786.300781 1403.9375 781.449219 1397.878906 778.460938 C 1367.796875 763.621094 1332.863281 749.792969 1330.152344 748.726562 C 1313.394531 742.125 1305.792969 739.460938 1297.113281 731.378906 C 1289.859375 724.632812 1289.070312 720.820312 1279.769531 709.90625 C 1272.496094 701.378906 1267.292969 697.074219 1252.515625 684.300781 C 1230.546875 665.347656 1219.566406 655.871094 1213.695312 650.441406 C 1199.773438 637.585938 1184.664062 626.113281 1170.75 613.277344 C 1165.886719 608.789062 1157.472656 600.917969 1151.75 603.363281 C 1146.917969 605.433594 1149.167969 612.675781 1142.667969 618.246094 C 1136.9375 623.140625 1132.863281 619.496094 1122.027344 624.855469 C 1114.707031 628.464844 1114.148438 631.320312 1109.640625 631.460938 C 1103.941406 631.636719 1099.535156 627.25 1094.761719 622.371094 C 1083.875 611.230469 1083.878906 602.957031 1076.585938 600.902344 C 1071.949219 599.59375 1069.550781 602.261719 1064.199219 603.378906 C 1053.894531 605.53125 1044.519531 599.433594 1018.769531 578.601562 C 1001.605469 564.679688 993.023438 557.746094 981.605469 547.214844 C 966.097656 532.910156 968.335938 533.605469 951.875 518.308594 C 947.449219 514.195312 931.554688 499.527344 908.921875 481.140625 C 893.671875 468.75 895.105469 470.710938 889.105469 465.445312 C 869.609375 448.359375 864.210938 436.167969 846.980469 413.414062 C 837.710938 401.167969 825.664062 388.179688 801.558594 362.207031 C 787.636719 347.210938 792.035156 352.554688 761.082031 320.089844 C 746.980469 305.289062 731.347656 291.910156 718.136719 276.3125 C 705.875 261.832031 698.050781 250.449219 690.882812 252.359375 C 686.132812 253.628906 684.769531 259.902344 681.796875 267.238281 C 675.847656 281.890625 669.992188 284.625 648.757812 309.363281 C 634.230469 326.289062 638.539062 323.183594 613.238281 354.789062 C 590.199219 383.558594 591.636719 379.929688 572.769531 403.515625 C 559.808594 419.730469 541.785156 443.136719 515.777344 466.292969 C 508.808594 472.492188 498.796875 480.949219 488.523438 478.679688 C 478.125 476.375 473.574219 464.488281 467.886719 466.292969 C 463.601562 467.644531 464.917969 474.773438 458.804688 486.109375 C 456.007812 491.285156 452.808594 494.792969 446.414062 501.800781 C 434.71875 514.621094 432.34375 513.511719 424.113281 523.277344 C 416.1875 532.671875 417.6875 534.523438 409.234375 543.917969 C 404.238281 549.445312 398.730469 554.40625 392.710938 558.796875 C 383.59375 565.601562 375.78125 569.4375 368.761719 572.835938 C 350.730469 581.574219 350.832031 578.375 343.15625 583.574219 C 339.582031 585.972656 336.917969 588.46875 319.203125 612.484375 C 305.789062 630.65625 306.511719 630.3125 304.324219 632.304688 C 293.101562 642.589844 287.5 639.207031 267.160156 650.476562 C 258.730469 655.140625 251.902344 660.195312 238.253906 670.296875 C 224.058594 680.796875 224.476562 681.605469 220.078125 684.335938 C 197.039062 698.664062 179.453125 680.246094 155.246094 688.054688 C 128.539062 696.667969 137.617188 726.457031 99.085938 748.347656 C 84.789062 756.476562 75.003906 758.222656 52.007812 769.820312 C 33.734375 779.023438 16.398438 789.746094 0 801.984375 Z M 1440 809.855469 " fill-opacity="1" fill-rule="nonzero"/></svg>