<svg xmlns="http://www.w3.org/2000/svg" viewBox="0 0 1440 810" preserveAspectRatio="xMaxYMax meet"><defs><clipPath id="oc-philo-tan-clip"><path d="M 2 333.09375 L 1438 333.09375 L 1438 810 L 2 810 Z"/></clipPath></defs><g clip-path="url(#oc-philo-tan-clip)"><path fill="#9b7552" d="M 950.835938 333.03125 L 836.296875 487.382812 C 823.390625 501.039062 801.15625 509.640625 769.589844 513.191406 C 764.753906 515.355469 758.589844 520.078125 751.09375 527.351562 C 735.292969 538.511719 706.914062 589.316406 665.953125 679.769531 C 653.597656 697.585938 639.863281 706.953125 624.761719 707.875 C 615.203125 709.015625 603.878906 706.914062 590.792969 701.570312 C 571.449219 692.171875 551.503906 679.777344 530.953125 664.386719 C 507.0625 658.71875 493.019531 654.675781 488.828125 652.25 L 390.527344 565.707031 L 375.640625 556.417969 C 360.9375 547.949219 347.445312 546.78125 335.171875 552.914062 C 328.984375 555.71875 322.3125 559.960938 315.15625 565.640625 C 272.601562 607.515625 245.105469 632.125 232.664062 639.457031 C 225.691406 644.414062 199.609375 652.890625 154.421875 664.890625 C 142.761719 669.246094 129.519531 677.738281 114.703125 690.367188 C 70.972656 732.4375 33.441406 785.167969 2.109375 848.550781 L 1437.960938 824.394531 C 1436.949219 815.917969 1425.886719 799.644531 1404.769531 775.574219 L 1268.226562 635.132812 C 1241.824219 598.003906 1222.191406 554.910156 1209.335938 505.855469 C 1205.667969 502.3125 1201.996094 499.933594 1198.316406 498.714844 C 1168.0625 494.5 1150.582031 489.894531 1145.875 484.890625 L 1054.171875 369.214844 C 1046.714844 364.699219 1040.925781 362.660156 1036.804688 363.097656 C 1018.671875 371.085938 1006.988281 373.867188 1001.753906 371.433594 L 950.835938 333.03125 " fill-opacity="0.996" fill-rule="nonzero"/></g></svg>